<svg xmlns="http://www.w3.org/2000/svg" width="13.478" height="14.279" viewBox="0 0 13.478 14.279">
  <g id="Group_17629" data-name="Group 17629" transform="translate(0 0.4)">
    <g id="COCO_Line_Trash-2" data-name="COCO/Line/Trash-2" transform="translate(0 0)">
      <path id="Vector" d="M2,4.033H12.483V7.884a12.567,12.567,0,0,1-.493,3.485,4.213,4.213,0,0,1-3.34,2.994l-.118.02a7.746,7.746,0,0,1-2.582,0l-.118-.02a4.213,4.213,0,0,1-3.34-2.994A12.567,12.567,0,0,1,2,7.884Z" transform="translate(-0.502 -1.013)" fill="none" stroke="red" stroke-width="0.8"/>
      <path id="Vector-2" data-name="Vector" d="M0,3.019H13.478m-10.108,0a2.75,2.75,0,0,1,.256-1.156,3.021,3.021,0,0,1,.73-.98A3.419,3.419,0,0,1,5.449.23a3.732,3.732,0,0,1,2.579,0A3.419,3.419,0,0,1,9.122.884a3.021,3.021,0,0,1,.73.98,2.75,2.75,0,0,1,.256,1.156" transform="translate(0 0)" fill="none" stroke="red" stroke-width="0.8"/>
      <path id="Vector-3" data-name="Vector" d="M0,0V3M3,0V3" transform="translate(5.241 6.739)" fill="none" stroke="red" stroke-linecap="round" stroke-width="0.8"/>
    </g>
  </g>
</svg>
